<svg width="85" height="22" viewBox="0 0 85 22" fill="none" xmlns="http://www.w3.org/2000/svg">
<path fill-rule="evenodd" clip-rule="evenodd" d="M79.5 8L85 5C85 3.5 82 0.5 77 0.5C70.6 0.5 68.6667 5.16667 68.5 7.5V13.9007C68.5 15.6137 68.8074 17.3663 69.9336 18.6571C71.3794 20.3141 73.7452 22 77 22C81.8 22 84.3333 20.3333 85 19.5V10.5H79V16.5C79 16.6667 77.5 17.5 76 17C74.4821 16.494 74.5 14.5 74.5 14.5V8C74.5 8 75 6.5 77 6.5C79 6.5 79.5 8 79.5 8ZM25.5 1.5H19V21H31L38 1.5H30.5L25.5 15V1.5ZM49 1.5V21H54.5L55 12.5L59.5 21H66.5V1.5H60V10.5L55 1.5H49ZM0 7V1.5H17V7H12V21H5V7H0ZM39.2933 1.5H46V21H39L39.2933 1.5Z" fill="white"/>
</svg>
